<svg width="64" height="64" viewBox="0 0 64 64" fill="none" xmlns="http://www.w3.org/2000/svg">
<path d="M3.75 0L7.7251 56.0127L32.0249 64L56.3247 56.0127L60.2998 0H3.75Z" fill="#FF7816"/>
<path d="M60.2998 0L56.3247 56.0127L32.0249 64V0H60.2998Z" fill="#FF4B00"/>
<path d="M49.6875 17H21.8999L22.5747 26.375H49.0127L47.3999 49.0747L32.0249 54.2124L16.6499 49.0747L16.125 41.5H23.625L23.7749 43.5625L32.0249 46.2998L40.2749 43.5625L40.9497 33.875H15.5625L13.8374 9.5H50.2124L49.6875 17Z" fill="#ECECF1"/>
<path d="M49.0127 26.375L47.3999 49.0747L32.0249 54.2124V46.2998L40.2749 43.5625L40.9497 33.875H32.0249V26.375H49.0127Z" fill="#E2E2E7"/>
<path d="M50.2124 9.5L49.6875 17H32.0249V9.5H50.2124Z" fill="#E2E2E7"/>
</svg>
